<svg xmlns="http://www.w3.org/2000/svg" xmlns:xlink="http://www.w3.org/1999/xlink" width="1200" zoomAndPan="magnify" viewBox="93.0 540.0 1200.0 389.5" height="390" preserveAspectRatio="xMidYMid meet" version="1.0"><defs><g/></defs><g fill="#FFFFFF" fill-opacity="1"><g transform="translate(395.903027, 860.194898)"><g><path d="M 110.09375 6 C 91.09375 6 74.441406 2.050781 60.140625 -5.84375 C 45.847656 -13.75 34.75 -24.847656 26.84375 -39.140625 C 18.945312 -53.441406 15 -70.09375 15 -89.09375 C 15 -108.09375 18.945312 -124.742188 26.84375 -139.046875 C 34.75 -153.347656 45.847656 -164.445312 60.140625 -172.34375 C 74.441406 -180.25 91.09375 -184.203125 110.09375 -184.203125 C 125.5 -184.203125 138.203125 -181.953125 148.203125 -177.453125 C 158.203125 -172.953125 166.097656 -167.398438 171.890625 -160.796875 C 177.691406 -154.203125 181.941406 -147.601562 184.640625 -141 C 187.347656 -134.394531 189.097656 -128.84375 189.890625 -124.34375 C 190.691406 -119.84375 191.09375 -117.59375 191.09375 -117.59375 L 31.5 -117.59375 C 31.101562 -115 30.753906 -112.453125 30.453125 -109.953125 C 30.148438 -107.453125 30 -104.800781 30 -102 C 30 -84.601562 33.847656 -68.851562 41.546875 -54.75 C 49.242188 -40.644531 60.144531 -29.394531 74.25 -21 C 88.351562 -12.601562 104.90625 -8.40625 123.90625 -8.40625 C 139.300781 -8.40625 152.796875 -11.703125 164.390625 -18.296875 C 175.992188 -24.898438 185.09375 -34.25 191.6875 -46.34375 C 198.289062 -58.445312 201.59375 -72.695312 201.59375 -89.09375 L 205.203125 -89.09375 C 205.203125 -70.09375 201.25 -53.441406 193.34375 -39.140625 C 185.445312 -24.847656 174.347656 -13.75 160.046875 -5.84375 C 145.742188 2.050781 129.09375 6 110.09375 6 Z M 32.09375 -121.203125 L 170.703125 -121.203125 C 170.503906 -132.796875 167.253906 -143.039062 160.953125 -151.9375 C 154.648438 -160.84375 146.546875 -167.84375 136.640625 -172.9375 C 126.742188 -178.039062 116.195312 -180.59375 105 -180.59375 C 93.195312 -180.59375 82.242188 -177.992188 72.140625 -172.796875 C 62.046875 -167.597656 53.546875 -160.546875 46.640625 -151.640625 C 39.742188 -142.742188 34.894531 -132.597656 32.09375 -121.203125 Z M 32.09375 -121.203125 "/></g></g></g><g fill="#FFFFFF" fill-opacity="1"><g transform="translate(565.702675, 860.194898)"><g><path d="M 12 6 L 12 -69.296875 L 15.59375 -69.296875 L 15.59375 -54.90625 C 15.59375 -49.90625 16.691406 -44.15625 18.890625 -37.65625 C 21.097656 -31.15625 24.398438 -24.851562 28.796875 -18.75 C 33.203125 -12.644531 38.703125 -7.59375 45.296875 -3.59375 C 51.898438 0.402344 59.5 2.40625 68.09375 2.40625 C 76.5 2.40625 83.550781 0.554688 89.25 -3.140625 C 94.945312 -6.847656 99.195312 -11.703125 102 -17.703125 C 104.800781 -23.703125 106.203125 -29.898438 106.203125 -36.296875 C 106.203125 -43.492188 104 -49.894531 99.59375 -55.5 C 95.195312 -61.101562 89.5 -66.300781 82.5 -71.09375 C 75.5 -75.894531 68.097656 -80.695312 60.296875 -85.5 C 52.492188 -90.300781 45.09375 -95.453125 38.09375 -100.953125 C 31.09375 -106.453125 25.394531 -112.703125 21 -119.703125 C 16.601562 -126.703125 14.40625 -134.898438 14.40625 -144.296875 C 14.40625 -152.296875 16.65625 -159.296875 21.15625 -165.296875 C 25.65625 -171.296875 31.601562 -175.992188 39 -179.390625 C 46.394531 -182.796875 54.296875 -184.5 62.703125 -184.5 C 68.296875 -184.5 73.09375 -184 77.09375 -183 C 81.09375 -182 85.09375 -181 89.09375 -180 C 93.09375 -179 97.695312 -178.5 102.90625 -178.5 C 104.695312 -178.5 106.492188 -178.847656 108.296875 -179.546875 C 110.097656 -180.242188 111 -181.894531 111 -184.5 L 114.59375 -184.5 L 114.59375 -124.796875 L 111 -124.796875 L 111 -139.203125 C 111 -147.796875 109.546875 -154.789062 106.640625 -160.1875 C 103.742188 -165.59375 99.992188 -169.796875 95.390625 -172.796875 C 90.796875 -175.796875 85.847656 -177.894531 80.546875 -179.09375 C 75.242188 -180.300781 70.195312 -180.90625 65.40625 -180.90625 C 55.800781 -180.90625 47.546875 -177.90625 40.640625 -171.90625 C 33.742188 -165.90625 30.296875 -158.003906 30.296875 -148.203125 C 30.296875 -141.003906 32.445312 -134.703125 36.75 -129.296875 C 41.050781 -123.898438 46.597656 -118.953125 53.390625 -114.453125 C 60.191406 -109.953125 67.34375 -105.453125 74.84375 -100.953125 C 82.34375 -96.453125 89.492188 -91.703125 96.296875 -86.703125 C 103.097656 -81.703125 108.648438 -75.953125 112.953125 -69.453125 C 117.253906 -62.953125 119.40625 -55.300781 119.40625 -46.5 C 119.40625 -37.101562 117.40625 -28.40625 113.40625 -20.40625 C 109.40625 -12.40625 103.550781 -6.003906 95.84375 -1.203125 C 88.144531 3.597656 78.796875 6 67.796875 6 C 59.203125 6 51.453125 4.5 44.546875 1.5 C 37.648438 -1.496094 32 -4.5 27.59375 -7.5 C 23.195312 -10.5 20.195312 -12 18.59375 -12 C 17 -12 16.050781 -11.398438 15.75 -10.203125 C 15.445312 -9.003906 15.296875 -8.003906 15.296875 -7.203125 L 15.296875 6 Z M 12 6 "/></g></g></g><g fill="#FFFFFF" fill-opacity="1"><g transform="translate(664.702448, 860.194898)"><g><path d="M 31.5 -174.59375 L 15 -174.59375 L 15 -178.203125 C 22.800781 -178.203125 28.847656 -180.398438 33.140625 -184.796875 C 37.441406 -189.203125 40.539062 -194.703125 42.4375 -201.296875 C 44.34375 -207.898438 45.492188 -214.648438 45.890625 -221.546875 C 46.296875 -228.453125 46.5 -234.503906 46.5 -239.703125 L 50.09375 -239.703125 L 50.09375 -178.203125 L 75.90625 -178.203125 L 75.90625 -174.59375 L 50.09375 -174.59375 L 50.09375 -33 C 50.09375 -28.195312 50.34375 -23.046875 50.84375 -17.546875 C 51.34375 -12.046875 52.691406 -7.394531 54.890625 -3.59375 C 57.097656 0.195312 60.601562 2.09375 65.40625 2.09375 C 66.40625 2.09375 67.503906 1.992188 68.703125 1.796875 C 69.898438 1.597656 71 1.300781 72 0.90625 L 72 4.5 C 71.394531 4.695312 70.644531 4.992188 69.75 5.390625 C 68.851562 5.796875 66.703125 6 63.296875 6 C 54.703125 6 48.101562 3.347656 43.5 -1.953125 C 38.894531 -7.253906 35.742188 -13.800781 34.046875 -21.59375 C 32.347656 -29.394531 31.5 -37 31.5 -44.40625 Z M 31.5 -174.59375 "/></g></g></g><g fill="#FFFFFF" fill-opacity="1"><g transform="translate(717.202283, 860.194898)"><g><path d="M 110.09375 6 C 91.09375 6 74.441406 2.050781 60.140625 -5.84375 C 45.847656 -13.75 34.75 -24.847656 26.84375 -39.140625 C 18.945312 -53.441406 15 -70.09375 15 -89.09375 C 15 -108.09375 18.945312 -124.742188 26.84375 -139.046875 C 34.75 -153.347656 45.847656 -164.445312 60.140625 -172.34375 C 74.441406 -180.25 91.09375 -184.203125 110.09375 -184.203125 C 125.5 -184.203125 138.203125 -181.953125 148.203125 -177.453125 C 158.203125 -172.953125 166.097656 -167.398438 171.890625 -160.796875 C 177.691406 -154.203125 181.941406 -147.601562 184.640625 -141 C 187.347656 -134.394531 189.097656 -128.84375 189.890625 -124.34375 C 190.691406 -119.84375 191.09375 -117.59375 191.09375 -117.59375 L 31.5 -117.59375 C 31.101562 -115 30.753906 -112.453125 30.453125 -109.953125 C 30.148438 -107.453125 30 -104.800781 30 -102 C 30 -84.601562 33.847656 -68.851562 41.546875 -54.75 C 49.242188 -40.644531 60.144531 -29.394531 74.25 -21 C 88.351562 -12.601562 104.90625 -8.40625 123.90625 -8.40625 C 139.300781 -8.40625 152.796875 -11.703125 164.390625 -18.296875 C 175.992188 -24.898438 185.09375 -34.25 191.6875 -46.34375 C 198.289062 -58.445312 201.59375 -72.695312 201.59375 -89.09375 L 205.203125 -89.09375 C 205.203125 -70.09375 201.25 -53.441406 193.34375 -39.140625 C 185.445312 -24.847656 174.347656 -13.75 160.046875 -5.84375 C 145.742188 2.050781 129.09375 6 110.09375 6 Z M 32.09375 -121.203125 L 170.703125 -121.203125 C 170.503906 -132.796875 167.253906 -143.039062 160.953125 -151.9375 C 154.648438 -160.84375 146.546875 -167.84375 136.640625 -172.9375 C 126.742188 -178.039062 116.195312 -180.59375 105 -180.59375 C 93.195312 -180.59375 82.242188 -177.992188 72.140625 -172.796875 C 62.046875 -167.597656 53.546875 -160.546875 46.640625 -151.640625 C 39.742188 -142.742188 34.894531 -132.597656 32.09375 -121.203125 Z M 32.09375 -121.203125 "/></g></g></g><g fill="#86CCF2" fill-opacity="1"><g transform="translate(887.012359, 860.194898)"><g><path d="M 9 0 L 9 -3.59375 L 22.796875 -3.59375 C 24.796875 -3.59375 26.945312 -4.039062 29.25 -4.9375 C 31.550781 -5.84375 33.597656 -7.695312 35.390625 -10.5 C 37.191406 -13.300781 38.09375 -17.398438 38.09375 -22.796875 L 38.09375 -277.203125 C 38.09375 -282.796875 37.191406 -286.941406 35.390625 -289.640625 C 33.597656 -292.347656 31.550781 -294.148438 29.25 -295.046875 C 26.945312 -295.953125 24.796875 -296.40625 22.796875 -296.40625 L 9 -296.40625 L 9 -300 L 112.5 -300 C 121.5 -300 130.695312 -298.597656 140.09375 -295.796875 C 149.5 -292.992188 158.097656 -288.59375 165.890625 -282.59375 C 173.691406 -276.59375 179.992188 -268.84375 184.796875 -259.34375 C 189.597656 -249.84375 192 -238.394531 192 -225 C 192 -213.601562 189.75 -203.351562 185.25 -194.25 C 180.75 -185.144531 174.796875 -177.34375 167.390625 -170.84375 C 159.992188 -164.34375 151.84375 -159.34375 142.9375 -155.84375 C 134.039062 -152.34375 125.195312 -150.394531 116.40625 -150 C 126.40625 -133.800781 135.351562 -119.097656 143.25 -105.890625 C 151.144531 -92.691406 158.992188 -79.742188 166.796875 -67.046875 C 174.597656 -54.347656 183.300781 -40.597656 192.90625 -25.796875 C 197.5 -18.597656 202.945312 -13.097656 209.25 -9.296875 C 215.550781 -5.492188 223.601562 -3.59375 233.40625 -3.59375 L 233.40625 0 C 230.601562 0 226.953125 0 222.453125 0 C 217.953125 0 213.453125 0 208.953125 0 C 204.453125 0 200.703125 0 197.703125 0 C 194.296875 0 191.289062 -0.5 188.6875 -1.5 C 186.09375 -2.5 183.394531 -5.097656 180.59375 -9.296875 C 172.195312 -22.898438 164.597656 -35.148438 157.796875 -46.046875 C 150.992188 -56.953125 144.492188 -67.601562 138.296875 -78 C 132.097656 -88.394531 125.546875 -99.34375 118.640625 -110.84375 C 111.742188 -122.34375 103.796875 -135.394531 94.796875 -150 L 60 -150 L 60 -22.796875 C 60 -17.398438 60.898438 -13.300781 62.703125 -10.5 C 64.503906 -7.695312 66.601562 -5.84375 69 -4.9375 C 71.394531 -4.039062 73.492188 -3.59375 75.296875 -3.59375 L 89.09375 -3.59375 L 89.09375 0 Z M 60 -296.703125 L 60 -153.59375 L 96.90625 -153.59375 C 113.695312 -153.59375 127.441406 -156.789062 138.140625 -163.1875 C 148.847656 -169.59375 156.75 -178.195312 161.84375 -189 C 166.945312 -199.800781 169.5 -211.800781 169.5 -225 C 169.5 -233.394531 168.097656 -241.84375 165.296875 -250.34375 C 162.492188 -258.84375 158.144531 -266.59375 152.25 -273.59375 C 146.351562 -280.59375 138.851562 -286.242188 129.75 -290.546875 C 120.644531 -294.847656 109.894531 -297 97.5 -297 C 92.101562 -297 87.851562 -297 84.75 -297 C 81.644531 -297 78.992188 -297 76.796875 -297 C 74.597656 -297 72.296875 -296.945312 69.890625 -296.84375 C 67.492188 -296.75 64.195312 -296.703125 60 -296.703125 Z M 60 -296.703125 "/></g></g></g><g fill="#FFFFFF" fill-opacity="1"><g transform="translate(1097.012341, 860.194898)"><g><path d="M 6 0 L 6 -3.59375 L 19.796875 -3.59375 C 21.796875 -3.59375 23.945312 -4.039062 26.25 -4.9375 C 28.550781 -5.84375 30.597656 -7.695312 32.390625 -10.5 C 34.191406 -13.300781 35.09375 -17.398438 35.09375 -22.796875 L 35.09375 -142.796875 C 35.09375 -144.992188 34.894531 -147.441406 34.5 -150.140625 C 34.101562 -152.847656 32.851562 -155.203125 30.75 -157.203125 C 28.644531 -159.203125 24.992188 -160.203125 19.796875 -160.203125 L 19.796875 -163.796875 C 30.398438 -163.796875 38.398438 -166.144531 43.796875 -170.84375 C 49.203125 -175.550781 51.90625 -180.101562 51.90625 -184.5 L 55.5 -184.5 L 55.5 -139.203125 C 58.695312 -147.398438 62.796875 -154.945312 67.796875 -161.84375 C 72.796875 -168.75 78.644531 -174.25 85.34375 -178.34375 C 92.050781 -182.445312 99.40625 -184.5 107.40625 -184.5 C 119 -184.5 128.394531 -181.398438 135.59375 -175.203125 C 142.800781 -169.003906 146.40625 -157.703125 146.40625 -141.296875 L 146.40625 -22.796875 C 146.40625 -17.398438 147.300781 -13.300781 149.09375 -10.5 C 150.894531 -7.695312 152.992188 -5.84375 155.390625 -4.9375 C 157.796875 -4.039062 159.898438 -3.59375 161.703125 -3.59375 L 175.5 -3.59375 L 175.5 0 L 96.90625 0 L 96.90625 -3.59375 L 110.703125 -3.59375 C 112.703125 -3.59375 114.847656 -4.039062 117.140625 -4.9375 C 119.441406 -5.84375 121.492188 -7.695312 123.296875 -10.5 C 125.097656 -13.300781 126 -17.398438 126 -22.796875 L 126 -152.40625 C 126 -159.800781 124.75 -166.398438 122.25 -172.203125 C 119.75 -178.003906 115 -180.90625 108 -180.90625 C 99.601562 -180.90625 92.203125 -178.753906 85.796875 -174.453125 C 79.398438 -170.148438 74 -164.796875 69.59375 -158.390625 C 65.195312 -151.992188 61.847656 -145.492188 59.546875 -138.890625 C 57.242188 -132.296875 55.894531 -126.695312 55.5 -122.09375 L 55.5 -22.796875 C 55.5 -17.398438 56.398438 -13.300781 58.203125 -10.5 C 60.003906 -7.695312 62.101562 -5.84375 64.5 -4.9375 C 66.894531 -4.039062 68.992188 -3.59375 70.796875 -3.59375 L 84.59375 -3.59375 L 84.59375 0 Z M 6 0 "/></g></g></g><g fill="#86CCF2" fill-opacity="1"><g transform="translate(878.125538, 902.53783)"><g><path d="M 11.1875 -24.875 L 11.71875 -24.875 L 20.96875 -0.625 L 22.65625 -0.625 L 22.65625 0 L 12.375 0 L 12.375 -0.625 L 15.125 -0.625 L 12.609375 -7.8125 L 5.90625 -7.8125 C 5.75 -7.34375 5.570312 -6.816406 5.375 -6.234375 C 5.175781 -5.648438 4.972656 -5.054688 4.765625 -4.453125 C 4.578125 -3.898438 4.398438 -3.398438 4.234375 -2.953125 C 4.078125 -2.503906 4 -2.15625 4 -1.90625 C 4 -1.050781 4.578125 -0.625 5.734375 -0.625 L 6.640625 -0.625 L 6.640625 0 L 0.375 0 L 0.375 -0.625 L 0.6875 -0.625 C 1.289062 -0.625 1.789062 -0.796875 2.1875 -1.140625 C 2.59375 -1.484375 2.898438 -1.941406 3.109375 -2.515625 L 3.625 -3.9375 Z M 9.265625 -17.171875 L 6.1875 -8.421875 L 12.328125 -8.421875 L 9.328125 -17.171875 Z M 9.265625 -17.171875 "/></g></g></g><g fill="#86CCF2" fill-opacity="1"><g transform="translate(909.047586, 902.53783)"><g><path d="M 11.984375 -24.328125 L 11.984375 -23.703125 L 8.640625 -23.703125 L 15.0625 -6.421875 C 15.9375 -8.796875 16.675781 -10.804688 17.28125 -12.453125 C 17.894531 -14.097656 18.40625 -15.46875 18.8125 -16.5625 C 19.21875 -17.65625 19.535156 -18.523438 19.765625 -19.171875 C 19.992188 -19.816406 20.164062 -20.332031 20.28125 -20.71875 C 20.394531 -21.113281 20.46875 -21.425781 20.5 -21.65625 C 20.539062 -21.882812 20.5625 -22.140625 20.5625 -22.421875 C 20.5625 -22.859375 20.421875 -23.179688 20.140625 -23.390625 C 19.859375 -23.597656 19.398438 -23.703125 18.765625 -23.703125 L 17.96875 -23.703125 L 17.96875 -24.328125 L 24.5625 -24.328125 L 24.5625 -23.703125 L 24.046875 -23.703125 C 23.742188 -23.703125 23.472656 -23.648438 23.234375 -23.546875 C 22.992188 -23.441406 22.753906 -23.242188 22.515625 -22.953125 C 22.285156 -22.671875 22.039062 -22.257812 21.78125 -21.71875 C 21.519531 -21.175781 21.226562 -20.476562 20.90625 -19.625 L 13.296875 0.546875 L 11.921875 0.546875 L 2.828125 -23.703125 L 0.375 -23.703125 L 0.375 -24.328125 Z M 11.984375 -24.328125 "/></g></g></g><g fill="#86CCF2" fill-opacity="1"><g transform="translate(941.869719, 902.53783)"><g><path d="M 20.078125 -24.328125 L 20.078125 -17.453125 L 19.453125 -17.453125 L 19.453125 -17.796875 C 19.453125 -18.765625 19.285156 -19.609375 18.953125 -20.328125 C 18.617188 -21.054688 18.160156 -21.671875 17.578125 -22.171875 C 17.003906 -22.679688 16.332031 -23.0625 15.5625 -23.3125 C 14.789062 -23.570312 13.976562 -23.703125 13.125 -23.703125 L 8.953125 -23.703125 L 8.953125 -13.125 L 11.359375 -13.125 C 12.234375 -13.125 12.945312 -13.34375 13.5 -13.78125 C 14.0625 -14.21875 14.429688 -14.957031 14.609375 -16 C 14.660156 -16.320312 14.695312 -16.632812 14.71875 -16.9375 C 14.738281 -17.25 14.75 -17.625 14.75 -18.0625 L 15.375 -18.0625 L 15.375 -7.15625 L 14.75 -7.15625 L 14.75 -7.8125 C 14.75 -8.613281 14.65625 -9.3125 14.46875 -9.90625 C 14.289062 -10.507812 14.046875 -11 13.734375 -11.375 C 13.421875 -11.757812 13.0625 -12.039062 12.65625 -12.21875 C 12.257812 -12.40625 11.84375 -12.5 11.40625 -12.5 L 8.953125 -12.5 L 8.953125 -0.625 L 14.0625 -0.625 C 16 -0.625 17.539062 -1.222656 18.6875 -2.421875 C 19.84375 -3.617188 20.421875 -5.285156 20.421875 -7.421875 L 20.421875 -7.765625 L 21.03125 -7.765625 L 21.03125 0 L 0.765625 0 L 0.765625 -0.625 L 3.5625 -0.625 L 3.5625 -23.703125 L 0.765625 -23.703125 L 0.765625 -24.328125 Z M 20.078125 -24.328125 "/></g></g></g><g fill="#86CCF2" fill-opacity="1"><g transform="translate(972.801307, 902.53783)"><g/></g></g><g fill="#86CCF2" fill-opacity="1"><g transform="translate(990.284639, 902.53783)"><g/></g></g><g fill="#86CCF2" fill-opacity="1"><g transform="translate(1007.770054, 902.53783)"><g><path d="M 13.4375 -24.328125 C 16.289062 -24.328125 18.453125 -23.785156 19.921875 -22.703125 C 21.398438 -21.617188 22.140625 -19.992188 22.140625 -17.828125 C 22.140625 -16.859375 21.921875 -15.953125 21.484375 -15.109375 C 21.046875 -14.273438 20.414062 -13.546875 19.59375 -12.921875 C 18.78125 -12.296875 17.796875 -11.804688 16.640625 -11.453125 C 15.492188 -11.097656 14.207031 -10.921875 12.78125 -10.921875 C 12.15625 -10.921875 11.53125 -10.929688 10.90625 -10.953125 C 10.289062 -10.972656 9.695312 -11.007812 9.125 -11.0625 L 9.125 -0.625 L 12.546875 -0.625 L 12.546875 0 L 0.9375 0 L 0.9375 -0.625 L 3.734375 -0.625 L 3.734375 -23.703125 L 0.9375 -23.703125 L 0.9375 -24.328125 Z M 9.125 -11.71875 C 9.375 -11.644531 9.613281 -11.59375 9.84375 -11.5625 C 10.070312 -11.539062 10.328125 -11.53125 10.609375 -11.53125 C 12.609375 -11.53125 14.0625 -12.015625 14.96875 -12.984375 C 15.882812 -13.953125 16.34375 -15.507812 16.34375 -17.65625 C 16.34375 -19.382812 16.191406 -20.6875 15.890625 -21.5625 C 15.566406 -22.4375 15.078125 -23.007812 14.421875 -23.28125 C 13.765625 -23.5625 12.921875 -23.703125 11.890625 -23.703125 L 9.125 -23.703125 Z M 9.125 -11.71875 "/></g></g></g><g fill="#86CCF2" fill-opacity="1"><g transform="translate(1038.692102, 902.53783)"><g><path d="M 11.75 -24.328125 L 11.75 -23.703125 L 8.953125 -23.703125 L 8.953125 -13.125 L 17.9375 -13.125 L 17.9375 -23.703125 L 15.125 -23.703125 L 15.125 -24.328125 L 26.125 -24.328125 L 26.125 -23.703125 L 23.3125 -23.703125 L 23.3125 -0.625 L 26.125 -0.625 L 26.125 0 L 15.125 0 L 15.125 -0.625 L 17.9375 -0.625 L 17.9375 -12.5 L 8.953125 -12.5 L 8.953125 -0.625 L 11.75 -0.625 L 11.75 0 L 0.765625 0 L 0.765625 -0.625 L 3.5625 -0.625 L 3.5625 -23.703125 L 0.765625 -23.703125 L 0.765625 -24.328125 Z M 11.75 -24.328125 "/></g></g></g><g fill="#86CCF2" fill-opacity="1"><g transform="translate(1073.448858, 902.53783)"><g><path d="M 11.1875 -24.875 L 11.71875 -24.875 L 20.96875 -0.625 L 22.65625 -0.625 L 22.65625 0 L 12.375 0 L 12.375 -0.625 L 15.125 -0.625 L 12.609375 -7.8125 L 5.90625 -7.8125 C 5.75 -7.34375 5.570312 -6.816406 5.375 -6.234375 C 5.175781 -5.648438 4.972656 -5.054688 4.765625 -4.453125 C 4.578125 -3.898438 4.398438 -3.398438 4.234375 -2.953125 C 4.078125 -2.503906 4 -2.15625 4 -1.90625 C 4 -1.050781 4.578125 -0.625 5.734375 -0.625 L 6.640625 -0.625 L 6.640625 0 L 0.375 0 L 0.375 -0.625 L 0.6875 -0.625 C 1.289062 -0.625 1.789062 -0.796875 2.1875 -1.140625 C 2.59375 -1.484375 2.898438 -1.941406 3.109375 -2.515625 L 3.625 -3.9375 Z M 9.265625 -17.171875 L 6.1875 -8.421875 L 12.328125 -8.421875 L 9.328125 -17.171875 Z M 9.265625 -17.171875 "/></g></g></g><g fill="#86CCF2" fill-opacity="1"><g transform="translate(1104.370907, 902.53783)"><g><path d="M 11.921875 -24.328125 C 15.078125 -24.328125 17.5 -23.859375 19.1875 -22.921875 C 20.882812 -21.984375 21.734375 -20.550781 21.734375 -18.625 C 21.734375 -17.007812 21.035156 -15.679688 19.640625 -14.640625 C 18.242188 -13.609375 16.234375 -13 13.609375 -12.8125 L 13.609375 -12.75 C 16.023438 -12.539062 17.898438 -11.941406 19.234375 -10.953125 C 20.578125 -9.960938 21.25 -8.460938 21.25 -6.453125 C 21.25 -5.785156 21.257812 -5.191406 21.28125 -4.671875 C 21.300781 -4.160156 21.335938 -3.707031 21.390625 -3.3125 C 21.472656 -2.300781 21.640625 -1.609375 21.890625 -1.234375 C 22.148438 -0.867188 22.582031 -0.6875 23.1875 -0.6875 C 23.363281 -0.6875 23.566406 -0.734375 23.796875 -0.828125 C 24.023438 -0.921875 24.234375 -1.023438 24.421875 -1.140625 L 24.671875 -0.625 C 24.066406 -0.164062 23.378906 0.140625 22.609375 0.296875 C 21.835938 0.460938 21.117188 0.546875 20.453125 0.546875 C 18.929688 0.546875 17.785156 0.0703125 17.015625 -0.875 C 16.242188 -1.832031 15.859375 -3.472656 15.859375 -5.796875 C 15.859375 -7.160156 15.773438 -8.269531 15.609375 -9.125 C 15.453125 -9.976562 15.175781 -10.640625 14.78125 -11.109375 C 14.394531 -11.578125 13.863281 -11.894531 13.1875 -12.0625 C 12.519531 -12.238281 11.671875 -12.328125 10.640625 -12.328125 L 9.125 -12.328125 L 9.125 -0.625 L 12.015625 -0.625 L 12.015625 0 L 0.9375 0 L 0.9375 -0.625 L 3.734375 -0.625 L 3.734375 -23.703125 L 0.9375 -23.703125 L 0.9375 -24.328125 Z M 9.125 -12.953125 L 10.328125 -12.953125 C 11.429688 -12.953125 12.347656 -13.046875 13.078125 -13.234375 C 13.804688 -13.421875 14.375 -13.734375 14.78125 -14.171875 C 15.195312 -14.609375 15.488281 -15.175781 15.65625 -15.875 C 15.832031 -16.570312 15.921875 -17.441406 15.921875 -18.484375 C 15.921875 -19.566406 15.863281 -20.445312 15.75 -21.125 C 15.632812 -21.800781 15.421875 -22.328125 15.109375 -22.703125 C 14.796875 -23.085938 14.375 -23.347656 13.84375 -23.484375 C 13.320312 -23.628906 12.644531 -23.703125 11.8125 -23.703125 L 9.125 -23.703125 Z M 9.125 -12.953125 "/></g></g></g><g fill="#86CCF2" fill-opacity="1"><g transform="translate(1137.19304, 902.53783)"><g><path d="M 9.78125 -24.328125 L 15.515625 -7.640625 L 15.578125 -7.640625 L 21.421875 -24.328125 L 29.75 -24.328125 L 29.75 -23.703125 L 27.15625 -23.703125 L 27.15625 -0.625 L 29.75 -0.625 L 29.75 0 L 18.796875 0 L 18.796875 -0.625 L 21.765625 -0.625 L 21.765625 -23.078125 L 21.703125 -23.078125 L 13.640625 0 L 12.71875 0 L 4.453125 -23.484375 L 4.390625 -23.484375 L 4.390625 -3.796875 C 4.390625 -2.597656 4.554688 -1.769531 4.890625 -1.3125 C 5.222656 -0.851562 5.894531 -0.625 6.90625 -0.625 L 7.46875 -0.625 L 7.46875 0 L 0.765625 0 L 0.765625 -0.625 L 0.890625 -0.625 C 1.773438 -0.625 2.441406 -0.84375 2.890625 -1.28125 C 3.335938 -1.71875 3.5625 -2.453125 3.5625 -3.484375 L 3.5625 -23.703125 L 0.9375 -23.703125 L 0.9375 -24.328125 Z M 9.78125 -24.328125 "/></g></g></g><g fill="#86CCF2" fill-opacity="1"><g transform="translate(1175.784493, 902.53783)"><g><path d="M 11.1875 -24.875 L 11.71875 -24.875 L 20.96875 -0.625 L 22.65625 -0.625 L 22.65625 0 L 12.375 0 L 12.375 -0.625 L 15.125 -0.625 L 12.609375 -7.8125 L 5.90625 -7.8125 C 5.75 -7.34375 5.570312 -6.816406 5.375 -6.234375 C 5.175781 -5.648438 4.972656 -5.054688 4.765625 -4.453125 C 4.578125 -3.898438 4.398438 -3.398438 4.234375 -2.953125 C 4.078125 -2.503906 4 -2.15625 4 -1.90625 C 4 -1.050781 4.578125 -0.625 5.734375 -0.625 L 6.640625 -0.625 L 6.640625 0 L 0.375 0 L 0.375 -0.625 L 0.6875 -0.625 C 1.289062 -0.625 1.789062 -0.796875 2.1875 -1.140625 C 2.59375 -1.484375 2.898438 -1.941406 3.109375 -2.515625 L 3.625 -3.9375 Z M 9.265625 -17.171875 L 6.1875 -8.421875 L 12.328125 -8.421875 L 9.328125 -17.171875 Z M 9.265625 -17.171875 "/></g></g></g><g fill="#86CCF2" fill-opacity="1"><g transform="translate(1206.706529, 902.53783)"><g><path d="M 19.140625 -23.109375 C 19.847656 -23.109375 20.226562 -23.453125 20.28125 -24.140625 L 20.90625 -24.140625 L 20.90625 -16 L 20.28125 -16 C 20.09375 -17.082031 19.765625 -18.117188 19.296875 -19.109375 C 18.828125 -20.097656 18.257812 -20.972656 17.59375 -21.734375 C 16.9375 -22.492188 16.203125 -23.101562 15.390625 -23.5625 C 14.578125 -24.019531 13.726562 -24.25 12.84375 -24.25 C 10.914062 -24.25 9.507812 -23.257812 8.625 -21.28125 C 7.738281 -19.300781 7.296875 -16.257812 7.296875 -12.15625 C 7.296875 -9.96875 7.394531 -8.109375 7.59375 -6.578125 C 7.800781 -5.046875 8.128906 -3.796875 8.578125 -2.828125 C 9.035156 -1.859375 9.601562 -1.15625 10.28125 -0.71875 C 10.957031 -0.28125 11.78125 -0.0625 12.75 -0.0625 C 14.269531 -0.0625 15.640625 -0.546875 16.859375 -1.515625 C 18.078125 -2.484375 19.03125 -3.785156 19.71875 -5.421875 C 19.90625 -5.878906 20.054688 -6.363281 20.171875 -6.875 C 20.285156 -7.382812 20.390625 -7.914062 20.484375 -8.46875 L 21 -8.46875 L 21 0 L 20.484375 0 C 20.410156 -0.28125 20.269531 -0.585938 20.0625 -0.921875 C 19.863281 -1.253906 19.578125 -1.421875 19.203125 -1.421875 C 18.929688 -1.421875 18.613281 -1.316406 18.25 -1.109375 C 17.894531 -0.898438 17.457031 -0.671875 16.9375 -0.421875 C 16.425781 -0.179688 15.800781 0.0351562 15.0625 0.234375 C 14.320312 0.441406 13.4375 0.546875 12.40625 0.546875 C 10.769531 0.546875 9.273438 0.210938 7.921875 -0.453125 C 6.578125 -1.117188 5.425781 -2.015625 4.46875 -3.140625 C 3.519531 -4.273438 2.785156 -5.582031 2.265625 -7.0625 C 1.742188 -8.550781 1.484375 -10.113281 1.484375 -11.75 C 1.484375 -13.40625 1.757812 -15.015625 2.3125 -16.578125 C 2.863281 -18.148438 3.640625 -19.550781 4.640625 -20.78125 C 5.648438 -22.007812 6.847656 -23 8.234375 -23.75 C 9.628906 -24.5 11.15625 -24.875 12.8125 -24.875 C 13.457031 -24.875 14.078125 -24.78125 14.671875 -24.59375 C 15.273438 -24.414062 15.84375 -24.21875 16.375 -24 C 16.90625 -23.78125 17.398438 -23.578125 17.859375 -23.390625 C 18.316406 -23.203125 18.742188 -23.109375 19.140625 -23.109375 Z M 19.140625 -23.109375 "/></g></g></g><g fill="#86CCF2" fill-opacity="1"><g transform="translate(1237.6286, 902.53783)"><g><path d="M 10.984375 -24.328125 L 10.984375 -23.703125 L 8.5 -23.703125 L 14.203125 -10.640625 C 14.929688 -12.316406 15.554688 -13.75 16.078125 -14.9375 C 16.597656 -16.125 17.035156 -17.117188 17.390625 -17.921875 C 17.753906 -18.734375 18.046875 -19.382812 18.265625 -19.875 C 18.484375 -20.375 18.640625 -20.78125 18.734375 -21.09375 C 18.835938 -21.40625 18.90625 -21.648438 18.9375 -21.828125 C 18.976562 -22.015625 19 -22.191406 19 -22.359375 C 19 -22.816406 18.847656 -23.15625 18.546875 -23.375 C 18.253906 -23.59375 17.691406 -23.703125 16.859375 -23.703125 L 16.484375 -23.703125 L 16.484375 -24.328125 L 22.703125 -24.328125 L 22.703125 -23.703125 L 22.453125 -23.703125 C 21.828125 -23.703125 21.3125 -23.488281 20.90625 -23.0625 C 20.507812 -22.632812 20.128906 -22.019531 19.765625 -21.21875 L 14.71875 -9.921875 L 14.71875 -0.625 L 17.375 -0.625 L 17.375 0 L 6.671875 0 L 6.671875 -0.625 L 9.328125 -0.625 L 9.328125 -8.46875 L 2.625 -23.703125 L 0.34375 -23.703125 L 0.34375 -24.328125 Z M 10.984375 -24.328125 "/></g></g></g><g fill="#86CCF2" fill-opacity="1"><g transform="translate(1268.559094, 902.53783)"><g/></g></g><path stroke-linecap="butt" transform="matrix(0.35716, -0.659497, 0.659497, 0.35716, 976.242021, 905.845558)" fill="none" stroke-linejoin="miter" d="M 0.000341189 4.501602 L 298.670343 4.499941 " stroke="#FFFFFF" stroke-width="9" stroke-opacity="1" stroke-miterlimit="4"/><g fill="#FFFFFF" fill-opacity="1"><g transform="translate(104.233443, 860.897834)"><g><path d="M 8.984375 -295.9375 L 8.984375 -299.53125 L 100.9375 -299.53125 L 100.9375 -295.9375 L 85.359375 -295.9375 C 82.765625 -295.9375 80.21875 -295.632812 77.71875 -295.03125 C 75.226562 -294.4375 73.984375 -292.144531 73.984375 -288.15625 C 73.984375 -286.351562 75.226562 -281.304688 77.71875 -273.015625 C 80.21875 -264.734375 83.5625 -254.25 87.75 -241.5625 C 91.945312 -228.882812 96.691406 -214.90625 101.984375 -199.625 C 107.273438 -184.351562 112.71875 -168.726562 118.3125 -152.75 C 123.90625 -136.78125 129.347656 -121.359375 134.640625 -106.484375 C 139.929688 -91.609375 144.671875 -78.28125 148.859375 -66.5 C 153.054688 -54.71875 156.398438 -45.378906 158.890625 -38.484375 C 161.390625 -31.597656 162.640625 -28.15625 162.640625 -28.15625 L 161.453125 -31.75 C 164.847656 -41.53125 169.390625 -54.507812 175.078125 -70.6875 C 180.765625 -86.863281 186.90625 -104.238281 193.5 -122.8125 C 195.09375 -127.40625 196.738281 -132.097656 198.4375 -136.890625 C 200.132812 -141.679688 201.78125 -146.472656 203.375 -151.265625 C 198.382812 -165.835938 193.539062 -179.8125 188.84375 -193.1875 C 184.15625 -206.570312 179.914062 -218.601562 176.125 -229.28125 C 172.332031 -239.96875 169.1875 -248.65625 166.6875 -255.34375 C 164.1875 -262.039062 162.640625 -265.988281 162.046875 -267.1875 C 160.046875 -271.175781 157.597656 -275.367188 154.703125 -279.765625 C 151.804688 -284.160156 148.257812 -287.953125 144.0625 -291.140625 C 139.875 -294.335938 134.785156 -295.9375 128.796875 -295.9375 L 116.515625 -295.9375 L 116.515625 -299.53125 L 287.84375 -299.53125 L 287.84375 -295.9375 L 280.0625 -295.9375 C 274.664062 -295.9375 270.070312 -294.335938 266.28125 -291.140625 C 262.488281 -287.953125 259.289062 -284.160156 256.6875 -279.765625 C 254.09375 -275.367188 251.800781 -271.175781 249.8125 -267.1875 C 249.207031 -265.78125 247.359375 -260.929688 244.265625 -252.640625 C 241.171875 -244.359375 237.328125 -233.628906 232.734375 -220.453125 C 228.140625 -207.273438 223.046875 -192.796875 217.453125 -177.015625 C 222.453125 -162.835938 227.445312 -148.660156 232.4375 -134.484375 C 237.425781 -120.304688 242.164062 -106.828125 246.65625 -94.046875 C 251.15625 -81.265625 255.148438 -69.929688 258.640625 -60.046875 C 262.140625 -50.171875 264.9375 -42.382812 267.03125 -36.6875 C 269.125 -31 270.171875 -28.15625 270.171875 -28.15625 L 268.984375 -31.75 C 272.378906 -41.53125 276.96875 -54.507812 282.75 -70.6875 C 288.539062 -86.863281 294.632812 -104.238281 301.03125 -122.8125 C 306.21875 -137.582031 311.304688 -152.457031 316.296875 -167.4375 C 321.296875 -182.414062 325.84375 -196.742188 329.9375 -210.421875 C 334.03125 -224.097656 337.320312 -236.378906 339.8125 -247.265625 C 342.3125 -258.148438 343.5625 -266.785156 343.5625 -273.171875 C 343.5625 -281.554688 341.0625 -287.445312 336.0625 -290.84375 C 331.070312 -294.238281 325.6875 -295.9375 319.90625 -295.9375 L 304.328125 -295.9375 L 304.328125 -299.53125 L 402.875 -299.53125 L 402.875 -295.9375 L 390.59375 -295.9375 C 384.601562 -295.9375 379.507812 -294.335938 375.3125 -291.140625 C 371.113281 -287.953125 367.566406 -284.160156 364.671875 -279.765625 C 361.785156 -275.367188 359.34375 -271.175781 357.34375 -267.1875 C 356.738281 -265.78125 355.085938 -261.429688 352.390625 -254.140625 C 349.703125 -246.859375 346.257812 -237.375 342.0625 -225.6875 C 337.875 -214.007812 333.28125 -200.929688 328.28125 -186.453125 C 323.289062 -171.972656 318.050781 -156.945312 312.5625 -141.375 C 307.070312 -125.800781 301.679688 -110.328125 296.390625 -94.953125 C 291.097656 -79.578125 286.101562 -65.148438 281.40625 -51.671875 C 276.71875 -38.191406 272.675781 -26.457031 269.28125 -16.46875 C 265.882812 -6.488281 263.285156 0.992188 261.484375 5.984375 L 257.890625 5.984375 C 256.097656 0.992188 253.453125 -6.640625 249.953125 -16.921875 C 246.460938 -27.203125 242.320312 -39.179688 237.53125 -52.859375 C 232.738281 -66.546875 227.644531 -81.222656 222.25 -96.890625 C 216.863281 -112.566406 211.472656 -128.296875 206.078125 -144.078125 C 200.679688 -128.296875 195.238281 -112.566406 189.75 -96.890625 C 184.257812 -81.222656 179.117188 -66.546875 174.328125 -52.859375 C 169.535156 -39.179688 165.390625 -27.203125 161.890625 -16.921875 C 158.398438 -6.640625 155.753906 0.992188 153.953125 5.984375 L 150.359375 5.984375 C 148.566406 0.992188 145.972656 -6.488281 142.578125 -16.46875 C 139.179688 -26.457031 135.132812 -38.191406 130.4375 -51.671875 C 125.75 -65.148438 120.757812 -79.578125 115.46875 -94.953125 C 110.175781 -110.328125 104.785156 -125.800781 99.296875 -141.375 C 93.804688 -156.945312 88.5625 -171.972656 83.5625 -186.453125 C 78.570312 -200.929688 73.976562 -214.007812 69.78125 -225.6875 C 65.59375 -237.375 62.148438 -246.859375 59.453125 -254.140625 C 56.753906 -261.429688 55.109375 -265.78125 54.515625 -267.1875 C 52.515625 -271.175781 50.066406 -275.367188 47.171875 -279.765625 C 44.273438 -284.160156 40.726562 -287.953125 36.53125 -291.140625 C 32.34375 -294.335938 27.253906 -295.9375 21.265625 -295.9375 Z M 192.890625 -295.9375 C 190.296875 -295.9375 187.75 -295.632812 185.25 -295.03125 C 182.757812 -294.4375 181.515625 -292.144531 181.515625 -288.15625 C 181.515625 -286.15625 183.007812 -280.210938 186 -270.328125 C 189 -260.441406 193.046875 -248.007812 198.140625 -233.03125 C 203.234375 -218.0625 208.675781 -201.988281 214.46875 -184.8125 C 220.65625 -203.78125 225.796875 -221.148438 229.890625 -236.921875 C 233.984375 -252.703125 236.03125 -264.785156 236.03125 -273.171875 C 236.03125 -281.554688 233.53125 -287.445312 228.53125 -290.84375 C 223.539062 -294.238281 218.15625 -295.9375 212.375 -295.9375 Z M 192.890625 -295.9375 "/></g></g></g></svg>